<svg width="133" height="40" viewBox="0 0 133 40" fill="none" xmlns="http://www.w3.org/2000/svg">
<path d="M19.9999 40C31.0456 40 39.9999 31.0457 39.9999 20C39.9999 8.9543 31.0456 0 19.9999 0C8.95424 0 -6.10352e-05 8.9543 -6.10352e-05 20C-6.10352e-05 31.0457 8.95424 40 19.9999 40Z" fill="white" fill-opacity="0.1"/>
<path d="M18.8424 28.0463C14.9124 27.4707 11.8964 24.0828 11.8964 19.9891C11.8964 15.8954 14.9124 12.5075 18.8424 11.9322V7.69238C12.5855 8.29084 7.69232 13.5677 7.69232 19.9891C7.69232 26.4104 12.5855 31.687 18.8424 32.2858V28.0463Z" fill="white"/>
<path d="M26.9983 12L26.8892 12.3711V23.1393L26.9983 23.2483L31.9968 20.2937L26.9983 12Z" fill="white"/>
<path d="M26.9984 12L21.9999 20.2937L26.9984 23.2483V18.0217V12Z" fill="white"/>
<path d="M26.9986 24.8742L26.9371 24.9492V28.7851L26.9986 28.9648L32.0001 21.9211L26.9986 24.8742Z" fill="white"/>
<path d="M26.9984 28.9648V24.8742L21.9999 21.9211L26.9984 28.9648Z" fill="white"/>
<path d="M26.9984 23.2482L31.9968 20.2937L26.9984 18.0217V23.2482Z" fill="white"/>
<path d="M21.9999 20.2937L26.9983 23.2482V18.0217L21.9999 20.2937Z" fill="white"/>
<path d="M67.5376 18.5959C67.1349 15.6875 64.8977 14 61.9957 14C58.576 14 56 16.4929 56 20.7244C56 24.9496 58.544 27.4489 61.9957 27.4489C65.1087 27.4489 67.1733 25.4354 67.5376 22.9361L65.147 22.9233C64.8466 24.4574 63.5938 25.3203 62.0277 25.3203C59.9055 25.3203 58.3842 23.7287 58.3842 20.7244C58.3842 17.7713 59.8928 16.1286 62.0341 16.1286C63.6257 16.1286 64.8722 17.0298 65.147 18.5959H67.5376Z" fill="white"/>
<path d="M70.4293 27.2699H72.8008V22.4759H75.217L77.7866 27.2699H80.4329L77.6012 22.0795C79.1417 21.4595 79.9535 20.1428 79.9535 18.3658C79.9535 15.8665 78.3427 14.179 75.3384 14.179H70.4293V27.2699ZM72.8008 20.5071V16.1605H74.9741C76.7447 16.1605 77.5373 16.9723 77.5373 18.3658C77.5373 19.7592 76.7447 20.5071 74.9869 20.5071H72.8008Z" fill="white"/>
<path d="M84.5375 27.2699L85.6177 24.0419H90.5396L91.6263 27.2699H94.1575L89.5425 14.179H86.6149L82.0062 27.2699H84.5375ZM86.2569 22.1371L88.0275 16.8636H88.1298L89.9004 22.1371H86.2569Z" fill="white"/>
<path d="M96.6018 27.2699H98.9732V22.8466H101.479C104.502 22.8466 106.126 21.0313 106.126 18.5128C106.126 16.0135 104.522 14.179 101.511 14.179H96.6018V27.2699ZM98.9732 20.897V16.1605H101.147C102.923 16.1605 103.71 17.1193 103.71 18.5128C103.71 19.9063 102.923 20.897 101.159 20.897H98.9732Z" fill="white"/>
<path d="M108.906 27.2699H111.277V22.8466H113.783C116.806 22.8466 118.43 21.0313 118.43 18.5128C118.43 16.0135 116.825 14.179 113.815 14.179H108.906V27.2699ZM111.277 20.897V16.1605H113.45C115.227 16.1605 116.014 17.1193 116.014 18.5128C116.014 19.9063 115.227 20.897 113.463 20.897H111.277Z" fill="white"/>
<path d="M132.907 20.7244C132.907 16.4929 130.325 14 126.892 14C123.453 14 120.877 16.4929 120.877 20.7244C120.877 24.9496 123.453 27.4489 126.892 27.4489C130.325 27.4489 132.907 24.956 132.907 20.7244ZM130.523 20.7244C130.523 23.7031 129.027 25.3203 126.892 25.3203C124.764 25.3203 123.262 23.7031 123.262 20.7244C123.262 17.7457 124.764 16.1286 126.892 16.1286C129.027 16.1286 130.523 17.7457 130.523 20.7244Z" fill="white"/>
</svg>
